<?xml version="1.0" encoding="UTF-8" standalone="no"?>
<svg
   id="Layer_1"
   data-name="Layer 1"
   viewBox="0 0 407.95352 354.8382"
   width="407.95352"
   height="354.8382"
   class="illustration styles_illustrationTablet__1DWOa"
   version="1.1"
   sodipodi:docname="robot1.svg"
   inkscape:export-filename="/Users/alex/Projects/defense/noattribution/Teacher_Two Color.png"
   inkscape:export-xdpi="300"
   inkscape:export-ydpi="300"
   inkscape:version="1.1.2 (b8e25be8, 2022-02-05)"
   xmlns:inkscape="http://www.inkscape.org/namespaces/inkscape"
   xmlns:sodipodi="http://sodipodi.sourceforge.net/DTD/sodipodi-0.dtd"
   xmlns="http://www.w3.org/2000/svg"
   xmlns:svg="http://www.w3.org/2000/svg"
   xmlns:rdf="http://www.w3.org/1999/02/22-rdf-syntax-ns#"
   xmlns:cc="http://creativecommons.org/ns#"
   xmlns:dc="http://purl.org/dc/elements/1.1/">
  <metadata
     id="metadata1641">
    <rdf:RDF>
      <cc:Work
         rdf:about="">
        <dc:format>image/svg+xml</dc:format>
        <dc:type
           rdf:resource="http://purl.org/dc/dcmitype/StillImage" />
      </cc:Work>
    </rdf:RDF>
  </metadata>
  <defs
     id="defs1639">
    <filter
       inkscape:collect="always"
       style="color-interpolation-filters:sRGB"
       id="filter14557"
       x="-0.14248113"
       y="-0.22004943"
       width="1.2850101"
       height="1.4400977">
      <feGaussianBlur
         inkscape:collect="always"
         stdDeviation="20.468974"
         id="feGaussianBlur14559" />
    </filter>
    <filter
       inkscape:collect="always"
       style="color-interpolation-filters:sRGB"
       id="filter14557-7"
       x="-0.14248113"
       y="-0.22004943"
       width="1.2850101"
       height="1.4400977">
      <feGaussianBlur
         inkscape:collect="always"
         stdDeviation="20.468974"
         id="feGaussianBlur14559-1" />
    </filter>
  </defs>
  <sodipodi:namedview
     pagecolor="#000000"
     bordercolor="#666666"
     borderopacity="1"
     objecttolerance="10"
     gridtolerance="10"
     guidetolerance="10"
     inkscape:pageopacity="0"
     inkscape:pageshadow="2"
     inkscape:window-width="1728"
     inkscape:window-height="969"
     id="namedview1637"
     showgrid="false"
     inkscape:zoom="1.474589"
     inkscape:cx="180.05017"
     inkscape:cy="118.33806"
     inkscape:window-x="0"
     inkscape:window-y="38"
     inkscape:window-maximized="1"
     inkscape:current-layer="g221082"
     inkscape:document-rotation="0"
     inkscape:pagecheckerboard="0"
     height="500px"
     fit-margin-top="0"
     fit-margin-left="0"
     fit-margin-right="0"
     fit-margin-bottom="0" />
  <g
     id="g221082"
     transform="translate(5.1608805,19.302634)">
    <path
       style="opacity:0.288889;mix-blend-mode:normal;fill:#ffffff;fill-opacity:1;stroke:#000000;stroke-width:1px;stroke-linecap:butt;stroke-linejoin:miter;stroke-opacity:1;filter:url(#filter14557)"
       d="M 359.68654,79.708005 C 308.14676,25.4556 152.84925,-7.095843 68.758021,70.213834 -15.333206,147.52351 64.68909,250.60308 138.60799,249.92493 c 73.9189,-0.67816 190.56157,0 222.43486,-53.57425 31.87329,-53.57425 21.02281,-79.34414 -1.35631,-116.642675 z"
       id="path14238"
       transform="matrix(0.88249981,0,0,0.90296496,18.20522,36.057144)" />
    <path
       style="opacity:0.288889;mix-blend-mode:normal;fill:#ffffff;fill-opacity:1;stroke:#000000;stroke-width:1px;stroke-linecap:butt;stroke-linejoin:miter;stroke-opacity:1;filter:url(#filter14557-7)"
       d="M 359.68654,79.708005 C 308.14676,25.4556 152.84925,-7.095843 68.758021,70.213834 -15.333206,147.52351 64.68909,250.60308 138.60799,249.92493 c 73.9189,-0.67816 190.56157,0 222.43486,-53.57425 31.87329,-53.57425 21.02281,-79.34414 -1.35631,-116.642675 z"
       id="path14238-0"
       transform="matrix(0.30273158,0,0,0.65004896,45.363631,81.460777)" />
    <rect
       x="94.379997"
       y="175.87"
       width="240.2"
       height="8.2700005"
       rx="4.1399999"
       fill="#c1c1c1"
       id="rect1558" />
    <rect
       x="219.89999"
       y="220.45"
       width="104.3"
       height="21.790001"
       fill="#e6e6e6"
       id="rect1560"
       style="fill:#4f4f4f;fill-opacity:1" />
    <path
       d="m 305.06,209.35 c 0,0 -9.11,-2.49 -11.09,-11 0,0 14.12,-2.85 14.52,11.72 z"
       fill="#68e1fd"
       opacity="0.58"
       id="path1562"
       style="fill:#0699c3;fill-opacity:1" />
    <path
       d="m 306.18,208.45 c 0,0 -6.37,-10.07 -0.76,-19.48 0,0 10.74,6.82 6,19.5 z"
       fill="#68e1fd"
       opacity="0.73"
       id="path1564"
       style="fill:#0699c3;fill-opacity:1" />
    <path
       d="m 307.82,208.46 c 0,0 3.37,-10.64 13.54,-12.65 0,0 1.9,6.9 -6.59,12.67 z"
       fill="#68e1fd"
       id="path1566"
       style="fill:#0699c3;fill-opacity:1" />
    <polygon
       points="319.21,210.22 321.06,222.86 332.7,222.91 334.41,210.28 "
       fill="#24285b"
       id="polygon1568"
       transform="translate(-18,-2)" />
    <rect
       x="237.66998"
       y="214.56"
       width="47.709999"
       height="6.3400002"
       fill="#ffd200"
       id="rect1570" />
    <rect
       x="241.95999"
       y="208.22"
       width="47.709999"
       height="6.3400002"
       fill="#c1c1c1"
       opacity="0.55"
       id="rect1572"
       style="fill:#4f4f4f;fill-opacity:1" />
    <rect
       x="108.75996"
       y="51.290001"
       width="225.82001"
       height="124.58"
       fill="#e6e6e6"
       id="rect1574"
       style="fill:#6f6f6f;fill-opacity:1" />
    <path
       d="m 134.96184,162.19232 c 10.2217,1.67351 39.75251,-23.84504 40.38552,-29.16587 0.633,-5.32083 -13.59495,-16.85539 -17.89419,-12.52074 -4.29924,4.33465 -15.78515,25.82555 -26.47202,28.9018 -10.15247,2.92242 -1.68888,11.85658 3.98069,12.78481 z"
       fill="#24285b"
       id="path956-3"
       style="fill:#03445b;fill-opacity:1"
       sodipodi:nodetypes="szzss" />
    <path
       d="M 268.17,171.38 H 298 v 2.22 a 2.27,2.27 0 0 1 -2.27,2.27 h -25.29 a 2.27,2.27 0 0 1 -2.27,-2.27 z"
       fill="#ffd200"
       id="path1630" />
    <path
       d="m 271.88,165.59 h 22.4 a 1.77,1.77 0 0 1 1.77,1.77 v 4 h -25.94 v -4 a 1.77,1.77 0 0 1 1.77,-1.77 z"
       fill="#ffffff"
       id="path1632" />
    <path
       d="m 49.46175,232.58292 v 12.36 c 0,4.42 27.43,8 61.27,8 33.84,0 61.28,-3.58 61.28,-8 v -12.36 z"
       fill="#cccccc"
       id="path908"
       style="fill:#4f4f4f;fill-opacity:1" />
    <ellipse
       cx="110.70175"
       cy="232.58292"
       rx="61.27"
       ry="8"
       fill="#e6e6e6"
       id="ellipse910"
       style="fill:#888888;fill-opacity:1" />
    <ellipse
       cx="113.38955"
       cy="232.79872"
       rx="19.224386"
       ry="3.9310696"
       fill="#e6e6e6"
       id="ellipse910-3"
       style="opacity:0.167901;fill:#0e0e0e;fill-opacity:1;stroke-width:0.392656" />
    <ellipse
       cx="112.38198"
       cy="198.04532"
       rx="16.085079"
       ry="3.9934549"
       fill="#e6e6e6"
       id="ellipse910-6"
       style="opacity:0.219753;fill:#2a2a2a;fill-opacity:1;stroke-width:0.362007" />
    <path
       style="opacity:0.335803;fill:#010f14;fill-opacity:1;stroke:none;stroke-width:1px;stroke-linecap:butt;stroke-linejoin:miter;stroke-opacity:1"
       d="m 141.66968,160.84337 c 4.44642,-2.075 15.51306,-8.69522 20.94757,-13.8333 5.43451,-5.13808 6.62022,-6.12617 6.62022,-6.12617 0,0 -19.95947,13.53687 -28.65469,16.50114 -8.69521,2.96428 1.0869,3.45833 1.0869,3.45833 z"
       id="path13722" />
    <path
       d="m 137.14175,185.11292 h -0.08 c -1.85961,0.6492 -5.67741,25.5206 -8.66836,26.37069 -8.75332,2.62789 -18.87213,2.05668 -24.38219,1.74109 -16.616215,-2.33469 -13.329988,-24.51027 -20.39945,-29.35178 -0.23,-0.1 -0.44,-0.22 -0.66,-0.33 -2.18,-5.48 -4.44,-11.72 -6.22,-17.9 -2.73,-9.5 -4.29,-18.87 -2.66,-25.21 2,-7.76 8.8,-12.58 15.93,-15.55 1,-0.39 1.88,-0.75 2.83,-1.09 5.395383,-1.8594 10.99621,-3.05813 16.68,-3.57 l 10,-0.32 c 32.95,2.21 25.04,42.14 17.63,65.21 z"
       fill="#68e1fd"
       id="path950"
       style="fill:#0699c3;fill-opacity:1"
       sodipodi:nodetypes="ccccccccccccc" />
    <path
       d="m 91.46175,201.58292 -0.66,-0.34 c -1.24,-2.54 -5.91,-14.22 -7.16,-17.35 -0.23,-0.1 -0.44,-0.22 -0.66,-0.33 -2.18,-5.48 -4.44,-11.72 -6.22,-17.9 -0.08549,-5.34943 -3.421258,-12.613 -3.399447,-19.13181 -0.371088,-7.75727 6.521088,-15.268 10.608359,-18.43964 2.07,-3.63 2.821088,0.74145 3.361088,-0.12855 5.021328,2.82568 8.643246,7.61023 10,13.21 0.679033,3.65537 0.86402,7.38538 0.55,11.09 -0.4,10.84 -0.58,22 1,32.75 0.07,0.52 0.15,1 0.24,1.55 0.750003,5.0001 2.00303,9.91169 3.74,14.66 0,0 -0.78355,-3.42815 -11.4,0.36 z"
       opacity="0.08"
       id="path954"
       sodipodi:nodetypes="cccccccccccccc" />
    <path
       d="m 78.493718,151.17601 c -10.120355,2.20503 -28.189652,36.79933 -26.820421,41.97979 1.369232,5.18045 18.843218,10.67052 21.245874,5.05804 2.402656,-5.61248 5.175031,-29.82196 13.98021,-36.61469 8.364885,-6.45306 -2.792305,-11.64619 -8.405663,-10.42314 z"
       fill="#24285b"
       id="path956"
       style="fill:#03445b;fill-opacity:1"
       sodipodi:nodetypes="szzss" />
    <path
       d="m 137.15175,184.63292 c 0,0.17 -0.05,0.34 -0.09,0.51 a 104.47,104.47 0 0 1 -4.94,18.39 c -0.48,0.14 -1,0.26 -1.54,0.36 -7.05,1.45 -18.2,0.53 -26.9,-0.59 -7.3,-1 -12.88,-2.05 -12.88,-2.05 -1.24,-2.54 -5.91,-14.22 -7.16,-17.35 -0.21,-0.5 -0.32,-0.78 -0.32,-0.78 a 107,107 0 0 0 15.54,1.9 327.78,327.78 0 0 0 38.29,-0.39 z"
       fill="#24285b"
       id="path962"
       style="fill:#03445b;fill-opacity:1" />
    <path
       d="m 87.96175,127.02292 a 9.77,9.77 0 0 0 -0.63,1 c -0.27,-0.16 -0.54,-0.3 -0.82,-0.44 z"
       opacity="0.08"
       id="path966" />
    <g
       id="g3289"
       transform="matrix(0.60736455,0,0,0.61685778,181.56901,173.56656)">
      <path
         style="fill:#eaeaea;fill-opacity:1;stroke:none;stroke-width:0.728721px;stroke-linecap:butt;stroke-linejoin:miter;stroke-opacity:1"
         d="m 74.684896,-64.955967 c -5.27492,0 -6.44712,3.423642 -2.93051,3.423642 3.51662,0 136.561884,-0.62248 142.422904,-1.244961 5.86103,-0.62248 1.17221,-1.867441 -3.51661,-2.489921 -4.68882,-0.62248 -135.975784,0.31124 -135.975784,0.31124 z"
         id="path3065" />
      <path
         style="fill:#eaeaea;fill-opacity:1;stroke:none;stroke-width:1px;stroke-linecap:butt;stroke-linejoin:miter;stroke-opacity:1"
         d="m 209.75588,-70.433491 c 8.64973,5.560539 8.34081,4.015944 8.64973,5.560539 0.30892,1.544594 -9.26757,8.340808 -8.34081,9.267564 0.92675,0.926757 10.81216,-4.633782 11.12108,-6.796214 0.30891,-2.162432 -7.10514,-9.885402 -9.26757,-9.576483 -2.16243,0.308918 -1.85351,-0.617838 -2.16243,1.544594 z"
         id="path3067" />
      <path
         style="fill:#eaeaea;fill-opacity:1;stroke:none;stroke-width:1px;stroke-linecap:butt;stroke-linejoin:miter;stroke-opacity:1"
         d="m 223.34831,-80.009975 c 0,9.267565 -1.5446,14.519185 0,14.828104 1.54459,0.308919 1.85351,-2.162432 2.16243,-4.942701 0.30892,-2.78027 1.54459,-13.28351 -0.30892,-12.047834 -1.85351,1.235675 -1.85351,2.162431 -1.85351,2.162431 z"
         id="path3069" />
      <path
         style="fill:#eaeaea;fill-opacity:1;stroke:none;stroke-width:1px;stroke-linecap:butt;stroke-linejoin:miter;stroke-opacity:1"
         d="m 221.18588,-84.025919 c 2.16243,4.015944 5.56053,1.544594 7.10513,1.544594 1.54459,0 3.08919,1.235675 3.08919,3.707026 0,2.47135 -3.39811,2.780269 -3.08919,3.707025 0.30892,0.926757 0.30892,4.015945 1.85351,6.178377 1.5446,2.162432 5.56054,4.015945 5.86946,2.780269 0.30892,-1.235675 2.16243,-2.780269 0.30892,-3.089188 -1.85351,-0.308919 -5.25162,-1.235675 -5.25162,-3.089188 0,-1.853513 3.08919,-5.25162 2.47135,-7.105133 -0.61784,-1.853513 -3.39811,-5.25162 -6.4873,-5.25162 -3.08918,0 -4.32486,-0.926756 -5.86945,0.617838 z"
         id="path3071" />
      <path
         style="fill:#eaeaea;fill-opacity:1;stroke:none;stroke-width:1px;stroke-linecap:butt;stroke-linejoin:miter;stroke-opacity:1"
         d="m 237.86749,-70.74241 c 0.32078,0.729764 8.92708,-1.340216 5.83789,-4.429404 -3.08918,-3.089188 -8.00032,-2.984648 -8.30924,-0.822216 -0.30892,2.162432 0.61784,10.194321 4.32487,10.50324 3.70702,0.308919 6.17837,0 6.17837,-1.235675 0,-1.235676 -0.30892,-1.853513 -3.39811,-1.853513 -3.08918,0 -4.63378,-2.162432 -4.63378,-2.162432 0,0 -1.17395,-3.447877 0,-4.633782 1.57302,-1.589032 5.20161,1.527364 4.54442,1.849399 -1.49387,0.732016 -4.54442,1.239789 -4.54442,2.784383 z"
         id="path3073"
         sodipodi:nodetypes="cssssscssc" />
      <path
         style="fill:#eaeaea;fill-opacity:1;stroke:none;stroke-width:1px;stroke-linecap:butt;stroke-linejoin:miter;stroke-opacity:1"
         d="m 147.48184,-144.88293 c -1.5446,2.78027 -1.23568,42.6308 -0.92676,65.181874 0.30892,22.551074 -1.23568,52.5162 0.30892,54.060794 1.54459,1.544594 3.3981,1.853513 3.3981,-1.544594 0,-3.398107 0.61784,-112.137534 -0.30891,-115.226724 -0.92676,-3.08918 -2.47135,-2.47135 -2.47135,-2.47135 z"
         id="path3075" />
      <path
         style="fill:#eaeaea;fill-opacity:1;stroke:none;stroke-width:1px;stroke-linecap:butt;stroke-linejoin:miter;stroke-opacity:1"
         d="m 141.30346,-139.01347 c 3.08919,-5.56054 6.17838,-5.86946 6.17838,-5.86946 0,0 5.25162,4.63379 5.56053,6.79622 0.30892,2.16243 5.25162,3.3981 4.63379,1.54459 -0.61784,-1.85351 -5.86946,-11.73891 -8.64973,-12.04783 -2.78027,-0.30892 -11.73892,8.34081 -11.73892,9.8854 0,1.54459 1.5446,2.16243 4.01595,-0.30892 z"
         id="path3077" />
      <path
         style="fill:#eaeaea;fill-opacity:1;stroke:none;stroke-width:1px;stroke-linecap:butt;stroke-linejoin:miter;stroke-opacity:1"
         d="m 138.52319,-164.65373 c 0,10.50324 -1.85351,17.29945 0.30892,16.3727 2.16243,-0.92676 3.70702,-12.97459 2.47135,-15.44595 -1.23568,-2.47135 -2.16243,-4.32486 -2.78027,-0.92675 z"
         id="path3079" />
      <path
         style="fill:#eaeaea;fill-opacity:1;stroke:none;stroke-width:1px;stroke-linecap:butt;stroke-linejoin:miter;stroke-opacity:1"
         d="m 144.08373,-156.93076 c -0.92676,7.10513 -0.30892,8.95864 1.85351,7.41405 2.16243,-1.54459 -0.59105,-5.47448 1.26247,-5.16556 1.85351,0.30892 -0.23138,5.0174 2.21601,5.13593 1.97574,0.0957 0.42309,-3.94103 1.77314,-4.91307 3.91446,-2.81842 -0.30892,5.56054 2.47135,4.32486 2.78027,-1.23567 1.5446,-7.41405 -0.61784,-7.41405 -2.16243,0 -3.3981,3.08919 -4.01594,1.23568 -0.61784,-1.85352 -3.08919,0.92675 -3.08919,-0.30892 0,-1.23568 -1.85919,-2.15107 -1.85351,-0.30892 z"
         id="path3081"
         sodipodi:nodetypes="cssssssssc" />
      <path
         style="fill:#eaeaea;fill-opacity:1;stroke:none;stroke-width:1px;stroke-linecap:butt;stroke-linejoin:miter;stroke-opacity:1"
         d="m 193.07426,-72.595923 c 0,-9.576483 0,-11.121078 1.23568,-10.194321 1.23567,0.926756 1.23567,9.267565 1.23567,10.194321 0,0.926756 -0.61783,3.707026 -1.54459,2.162432 -0.92676,-1.544594 -0.92676,-0.308919 -0.92676,-2.162432 z"
         id="path3083" />
      <path
         style="fill:#eaeaea;fill-opacity:1;stroke:none;stroke-width:1px;stroke-linecap:butt;stroke-linejoin:miter;stroke-opacity:1"
         d="m 193.12213,-90.773443 c 0,-9.576487 0,-11.121077 1.23568,-10.194317 1.23567,0.92675 1.23567,9.267561 1.23567,10.194317 0,0.926756 -0.61783,3.707026 -1.54459,2.162432 -0.92676,-1.544594 -0.92676,-0.308919 -0.92676,-2.162432 z"
         id="path3083-2" />
      <path
         style="fill:#eaeaea;fill-opacity:1;stroke:none;stroke-width:1px;stroke-linecap:butt;stroke-linejoin:miter;stroke-opacity:1"
         d="m 192.81321,-107.91047 c 0,-9.57648 0,-11.12107 1.23568,-10.19432 1.23567,0.92676 1.23567,9.26757 1.23567,10.19432 0,0.92676 -0.61783,3.70703 -1.54459,2.16244 -0.92676,-1.5446 -0.92676,-0.30892 -0.92676,-2.16244 z"
         id="path3083-0" />
      <path
         style="fill:#eaeaea;fill-opacity:1;stroke:none;stroke-width:1px;stroke-linecap:butt;stroke-linejoin:miter;stroke-opacity:1"
         d="m 192.81321,-125.91047 c 0,-9.57648 0,-11.12107 1.23568,-10.19432 1.23567,0.92676 1.23567,9.26757 1.23567,10.19432 0,0.92676 -0.61783,3.70703 -1.54459,2.16244 -0.92676,-1.5446 -0.92676,-0.30892 -0.92676,-2.16244 z"
         id="path3083-5" />
      <path
         style="fill:#eaeaea;fill-opacity:1;stroke:none;stroke-width:1px;stroke-linecap:butt;stroke-linejoin:miter;stroke-opacity:1"
         d="m 193.38321,-54.33697 c 0,-9.57648 0,-11.12107 1.23568,-10.19432 1.23567,0.92676 1.23567,9.26757 1.23567,10.19432 0,0.92676 -0.61783,3.70703 -1.54459,2.16244 -0.92676,-1.5446 -0.92676,-0.30892 -0.92676,-2.16244 z"
         id="path3083-5-0" />
      <path
         style="fill:#eaeaea;fill-opacity:1;stroke:none;stroke-width:1px;stroke-linecap:butt;stroke-linejoin:miter;stroke-opacity:1"
         d="m 193.69214,-36.614 c 0,-9.57648 0,-11.12107 1.23568,-10.19432 1.23567,0.92676 1.23567,9.26757 1.23567,10.19432 0,0.92676 -0.61783,3.70703 -1.54459,2.16244 -0.92676,-1.5446 -0.92676,-0.30892 -0.92676,-2.16244 z"
         id="path3083-5-1" />
      <path
         style="fill:#eaeaea;fill-opacity:1;stroke:none;stroke-width:1px;stroke-linecap:butt;stroke-linejoin:miter;stroke-opacity:1"
         d="m 170.21427,-73.213761 c -1.23567,2.162432 -0.61784,4.633783 0.92676,3.398107 1.54459,-1.235675 0.92675,-4.015944 -0.92676,-3.398107 z"
         id="path3152" />
      <path
         style="fill:#eaeaea;fill-opacity:1;stroke:none;stroke-width:1px;stroke-linecap:butt;stroke-linejoin:miter;stroke-opacity:1"
         d="m 170.63419,-80.156594 c -1.23567,2.162432 -0.61784,4.633783 0.92676,3.398107 1.54459,-1.235675 0.92675,-4.015944 -0.92676,-3.398107 z"
         id="path3152-6" />
      <path
         style="fill:#eaeaea;fill-opacity:1;stroke:none;stroke-width:1px;stroke-linecap:butt;stroke-linejoin:miter;stroke-opacity:1"
         d="m 170.63419,-88.156594 c -1.23567,2.162432 -0.61784,4.633783 0.92676,3.398107 1.54459,-1.235675 0.92675,-4.015944 -0.92676,-3.398107 z"
         id="path3152-7" />
      <path
         style="fill:#eaeaea;fill-opacity:1;stroke:none;stroke-width:1px;stroke-linecap:butt;stroke-linejoin:miter;stroke-opacity:1"
         d="m 170.63419,-96.156594 c -1.23567,2.162432 -0.61784,4.633783 0.92676,3.398107 1.54459,-1.235675 0.92675,-4.015944 -0.92676,-3.398107 z"
         id="path3152-3" />
      <path
         style="fill:#eaeaea;fill-opacity:1;stroke:none;stroke-width:1px;stroke-linecap:butt;stroke-linejoin:miter;stroke-opacity:1"
         d="m 170.63419,-104.15659 c -1.23567,2.16243 -0.61784,4.63378 0.92676,3.3981 1.54459,-1.23567 0.92675,-4.01594 -0.92676,-3.3981 z"
         id="path3152-2" />
      <path
         style="fill:#eaeaea;fill-opacity:1;stroke:none;stroke-width:1px;stroke-linecap:butt;stroke-linejoin:miter;stroke-opacity:1"
         d="m 170.63419,-112.15659 c -1.23567,2.16243 -0.61784,4.63378 0.92676,3.3981 1.54459,-1.23567 0.92675,-4.01594 -0.92676,-3.3981 z"
         id="path3152-0" />
      <path
         style="fill:#eaeaea;fill-opacity:1;stroke:none;stroke-width:1px;stroke-linecap:butt;stroke-linejoin:miter;stroke-opacity:1"
         d="m 170.63419,-120.15659 c -1.23567,2.16243 -0.61784,4.63378 0.92676,3.3981 1.54459,-1.23567 0.92675,-4.01594 -0.92676,-3.3981 z"
         id="path3152-1" />
      <path
         style="fill:#eaeaea;fill-opacity:1;stroke:none;stroke-width:1px;stroke-linecap:butt;stroke-linejoin:miter;stroke-opacity:1"
         d="m 170.16254,-35.274244 c -1.23567,2.162432 -0.61784,4.633783 0.92676,3.398107 1.54459,-1.235675 0.92675,-4.015944 -0.92676,-3.398107 z"
         id="path3152-3-7" />
      <path
         style="fill:#eaeaea;fill-opacity:1;stroke:none;stroke-width:1px;stroke-linecap:butt;stroke-linejoin:miter;stroke-opacity:1"
         d="m 170.16254,-43.27424 c -1.23567,2.16243 -0.61784,4.63378 0.92676,3.3981 1.54459,-1.23567 0.92675,-4.01594 -0.92676,-3.3981 z"
         id="path3152-2-5" />
      <path
         style="fill:#eaeaea;fill-opacity:1;stroke:none;stroke-width:1px;stroke-linecap:butt;stroke-linejoin:miter;stroke-opacity:1"
         d="m 170.16254,-51.27424 c -1.23567,2.16243 -0.61784,4.63378 0.92676,3.3981 1.54459,-1.23567 0.92675,-4.01594 -0.92676,-3.3981 z"
         id="path3152-0-1" />
      <path
         style="fill:#eaeaea;fill-opacity:1;stroke:none;stroke-width:1px;stroke-linecap:butt;stroke-linejoin:miter;stroke-opacity:1"
         d="m 170.16254,-59.27424 c -1.23567,2.16243 -0.61784,4.63378 0.92676,3.3981 1.54459,-1.23567 0.92675,-4.01594 -0.92676,-3.3981 z"
         id="path3152-1-2" />
    </g>
    <g
       id="g3397"
       transform="matrix(0.8316559,0,0,0.79671681,37.247683,26.815098)">
      <path
         style="fill:#eaeaea;fill-opacity:1;stroke:none;stroke-width:0.67002px;stroke-linecap:butt;stroke-linejoin:miter;stroke-opacity:1"
         d="m 124.6256,61.308542 c -0.79586,1.53256 4.45681,5.78966 6.36686,5.95994 1.91006,0.17029 4.13847,-0.51085 3.9793,-3.06511 -0.15917,-2.55426 -0.34969,-4.49237 -4.45681,-3.74625 -8.4361,1.53256 -17.9864,13.11187 -14.32545,23.669477 3.66095,10.557608 11.7787,4.938236 13.52959,5.95994 1.75089,1.021704 3.02426,3.40568 1.27337,3.575964 -1.75089,0.170284 -2.38757,3.575964 -0.95502,2.894828 1.43254,-0.681136 4.61597,-2.55426 4.4568,-5.278804 -0.15917,-2.724544 -0.63669,-4.086816 -5.25267,-3.575965 -4.61597,0.510853 -6.20769,1.532557 -8.91361,-2.213691 -2.70592,-3.746248 -3.3426,-9.535903 -0.63668,-13.622719 2.70592,-4.08681 9.23195,-8.85477 10.6645,-8.5142 1.43254,0.34057 1.59171,1.53256 0.63668,1.70284 -0.95502,0.17029 -5.73018,-5.10852 -6.36686,-3.74625 z"
         id="path3291"
         sodipodi:nodetypes="csssssssssssssc" />
      <path
         style="fill:#eaeaea;fill-opacity:1;stroke:none;stroke-width:0.67002px;stroke-linecap:butt;stroke-linejoin:miter;stroke-opacity:1"
         d="m 143.56703,61.308542 c -5.25267,8.68449 -7.16273,10.38733 -7.3219,16.176982 -0.15917,5.789656 3.02426,18.390671 4.93433,18.901523 1.91005,0.510851 1.59171,-0.510852 0.95502,-2.55426 -0.63668,-2.043408 -4.77515,-10.727892 -4.45681,-15.836411 0.31835,-5.10852 7.3219,-14.303854 7.48108,-16.176984 0.15917,-1.87312 -0.79586,-1.87312 -1.59172,-0.51085 z"
         id="path3293" />
      <path
         style="fill:#eaeaea;fill-opacity:1;stroke:none;stroke-width:0.67002px;stroke-linecap:butt;stroke-linejoin:miter;stroke-opacity:1"
         d="m 151.68478,79.528932 c 2.54676,1.191988 3.66095,0.851419 2.38758,-0.681136 -1.27337,-1.532556 -6.84438,-4.427384 -8.59527,-1.362272 -1.75088,3.065112 -2.06923,5.449087 0.79585,7.833064 2.8651,2.383975 6.04853,2.213691 5.25267,4.767951 -0.79586,2.55426 -4.13846,0.85142 -5.57101,1.362272 -1.43254,0.510852 -0.31834,2.894828 2.70592,2.55426 3.02426,-0.340568 6.36687,-3.40568 4.61599,-6.130224 -1.7509,-2.724544 -5.88936,-4.427383 -6.52605,-5.449088 -0.63668,-1.021703 -0.31834,-3.575963 1.27337,-3.40568 1.59172,0.170284 1.75089,0 3.66095,0.510853 z"
         id="path3295"
         sodipodi:nodetypes="csssssssssc" />
      <path
         style="fill:#eaeaea;fill-opacity:1;stroke:none;stroke-width:0.67002px;stroke-linecap:butt;stroke-linejoin:miter;stroke-opacity:1"
         d="m 157.19888,96.321882 c 4.62809,-9.082034 6.4132,-10.933547 6.16543,-16.719635 -0.24778,-5.786095 -4.30693,-18.095705 -6.24747,-18.451635 -1.94053,-0.35592 -1.55135,0.63732 -0.77299,2.62379 0.77835,1.98648 5.51486,10.313876 5.5561,15.433548 0.0412,5.119665 -6.29694,14.851806 -6.32416,16.732431 -0.0272,1.880617 0.92513,1.803875 1.62309,0.381501 z"
         id="path3293-5" />
      <path
         style="fill:#eaeaea;fill-opacity:1;stroke:none;stroke-width:0.67002px;stroke-linecap:butt;stroke-linejoin:miter;stroke-opacity:1"
         d="m 187.49841,76.804388 c -2.54674,-0.170284 -12.57456,0 -14.64379,-0.170284 -2.06923,-0.170284 -5.0935,1.532556 -2.54675,1.702839 2.54675,0.170285 14.48463,0 16.71303,0 2.2284,0 2.70592,-1.532555 0.47751,-1.532555 z"
         id="path3321" />
      <path
         style="fill:#eaeaea;fill-opacity:1;stroke:none;stroke-width:0.67002px;stroke-linecap:butt;stroke-linejoin:miter;stroke-opacity:1"
         d="m 187.10111,85.286935 c -2.54674,-0.170284 -12.57455,0 -14.64379,-0.170284 -2.06923,-0.170284 -5.09349,1.532556 -2.54674,1.70284 2.54674,0.170284 14.48462,0 16.71302,0 2.2284,0 2.70592,-1.532556 0.47751,-1.532556 z"
         id="path3321-7" />
      <path
         style="fill:#eaeaea;fill-opacity:1;stroke:none;stroke-width:0.67002px;stroke-linecap:butt;stroke-linejoin:miter;stroke-opacity:1"
         d="m 227.76884,61.308542 c -6.52603,-0.17028 -25.46746,-2.21369 -25.94497,0.68114 -0.47752,2.89483 11.77869,13.963286 11.46035,15.666125 -0.31834,1.702841 -14.64379,9.706188 -14.64379,12.090164 0,2.383976 26.74084,5.108519 28.81007,4.2571 2.06923,-0.85142 1.59172,-4.086816 1.59172,-5.278804 0,-1.191988 -1.27338,-3.405679 -1.75089,-1.191988 -0.47751,2.213692 0,4.427384 -1.43254,4.427384 -1.43255,0 -23.0799,-1.532556 -23.87576,-2.724544 -0.79585,-1.191988 13.84794,-7.833063 13.84794,-10.727891 0,-2.894828 -11.14202,-13.963286 -11.14202,-14.984986 0,-1.02171 20.53315,0 22.92073,0.17028 2.38757,0.17029 0.47751,2.89483 0.63668,4.59766 0.15917,1.70285 2.2284,2.72455 2.2284,1.19199 0,-1.53255 0.15918,-5.2788 0.15918,-6.47079 0,-1.19199 -1.11421,-1.70284 -2.8651,-1.70284 z"
         id="path3343" />
      <path
         style="fill:#eaeaea;fill-opacity:1;stroke:none;stroke-width:0.67002px;stroke-linecap:butt;stroke-linejoin:miter;stroke-opacity:1"
         d="m 206.59901,54.156622 c 1.27338,3.06511 3.34261,5.78965 6.36687,4.2571 3.02426,-1.53256 7.00355,-6.13023 8.91361,-5.78966 1.91006,0.34057 3.02427,2.04341 2.06924,2.89483 -0.95504,0.85142 -5.57101,1.70284 -8.4361,-1.36227 -2.8651,-3.06512 -4.61598,-4.42739 -6.52604,-2.89483 -1.91006,1.53256 -1.75089,2.55426 -0.95503,3.57596 0.79586,1.02171 0,-0.17028 0.63668,-1.19199 0.63669,-1.0217 0.63669,-2.0434 2.22841,-1.0217 1.59172,1.0217 4.93432,4.42739 6.52604,4.59767 1.59171,0.17028 4.61597,1.87312 6.04852,0.85142 1.43255,-1.0217 3.97929,-3.40568 2.86509,-4.59767 -1.1142,-1.19199 -0.31835,-1.19199 -1.1142,-1.19199 -0.79586,0 -2.22841,-2.89483 -6.68521,0 -4.45681,2.89483 -3.66095,4.93824 -6.68521,4.93824 -3.02426,0 -3.18344,-0.51085 -3.18344,-2.55426 0,-2.04341 -2.54674,-2.38398 -2.06923,-0.51085 z"
         id="path3345" />
      <path
         style="fill:#eaeaea;fill-opacity:1;stroke:none;stroke-width:0.67002px;stroke-linecap:butt;stroke-linejoin:miter;stroke-opacity:1"
         d="m 204.57419,96.75137 c 0,5.95994 -0.31834,7.32221 0.47752,7.32221 0.79585,0 1.43254,-3.2354 1.43254,-4.427383 0,-1.191987 2.54675,-1.702839 2.86509,-1.191987 0.31834,0.510851 -0.95503,5.95994 0.47751,5.78965 1.43255,-0.17028 2.22841,-6.300502 1.11421,-6.811354 -1.11421,-0.510853 -4.13847,-0.510853 -4.77515,0.170283 -0.63669,0.681136 0.79586,-1.021703 -0.47752,-1.021703 -1.27337,0 -0.95503,-1.532556 -1.1142,0.170284 z"
         id="path3347" />
      <path
         style="fill:#eaeaea;fill-opacity:1;stroke:none;stroke-width:0.67002px;stroke-linecap:butt;stroke-linejoin:miter;stroke-opacity:1"
         d="m 213.64698,102.88159 c 5.41183,0 7.64023,-0.85142 5.41183,-1.36227 -2.2284,-0.51085 -4.61597,-1.0217 -5.41183,-0.34057 -0.79586,0.68114 -2.22841,1.53256 0,1.70284 z"
         id="path3349" />
      <path
         style="fill:#eaeaea;fill-opacity:1;stroke:none;stroke-width:0.67002px;stroke-linecap:butt;stroke-linejoin:miter;stroke-opacity:1"
         d="m 213.01029,99.30563 c 2.06923,0.170284 5.25266,0.510852 6.36687,0.510852 1.1142,0 1.91005,-1.362272 0,-1.362272 -1.91006,0 -4.77516,-0.170285 -5.57101,-0.340568 -0.79586,-0.170284 -1.91006,1.021704 -0.79586,1.191988 z"
         id="path3351" />
      <path
         style="fill:#eaeaea;fill-opacity:1;stroke:none;stroke-width:0.67002px;stroke-linecap:butt;stroke-linejoin:miter;stroke-opacity:1"
         d="m 222.03866,97.602789 c -0.15917,5.619371 0.79586,10.727891 1.27338,8.854771 0.47751,-1.87313 0.47751,-6.981646 0.47751,-8.173635 0,-1.191987 -1.91006,-2.554259 -1.75089,-0.681136 z"
         id="path3353" />
      <path
         style="fill:#eaeaea;fill-opacity:1;stroke:none;stroke-width:0.748372px;stroke-linecap:butt;stroke-linejoin:miter;stroke-opacity:1"
         d="m 256.38053,79.156711 c -3.17721,-0.170284 -15.68751,0 -18.269,-0.170284 -2.58149,-0.170283 -6.35444,1.532556 -3.17722,1.70284 3.17722,0.170284 18.07044,0 20.8505,0 2.78007,0 3.37579,-1.532556 0.59572,-1.532556 z"
         id="path3321-8" />
      <path
         style="fill:#eaeaea;fill-opacity:1;stroke:none;stroke-width:0.67002px;stroke-linecap:butt;stroke-linejoin:miter;stroke-opacity:1"
         d="m 245.11855,65.735922 c 0,3.06512 -0.95502,10.046762 -0.31834,10.727898 0.63669,0.681136 2.06923,0.85142 1.91007,0 -0.15918,-0.85142 0.15916,-8.343918 0.15916,-10.898178 0,-2.55426 -2.06923,-2.21369 -1.75089,0.17028 z"
         id="path3375" />
      <path
         style="fill:#eaeaea;fill-opacity:1;stroke:none;stroke-width:0.67002px;stroke-linecap:butt;stroke-linejoin:miter;stroke-opacity:1"
         d="m 239.86589,83.786031 c 0,3.746248 0,5.95994 0,7.151928 0,1.191988 1.75089,2.55426 1.75089,0.681136 0,-1.873124 -1.1142,-5.449088 1.27337,-5.619371 2.38758,-0.170285 1.91006,3.065111 1.91006,4.767951 0,1.70284 1.59172,3.235396 1.59172,1.532556 0,-1.70284 0.63669,-5.95994 -0.47751,-7.151928 -1.11421,-1.191987 -3.9793,-0.510851 -4.45681,0 -0.47751,0.510852 0.63668,-2.043408 -0.31835,-2.043408 -0.95503,0 -1.27337,-0.510851 -1.27337,0.681136 z"
         id="path3377" />
      <path
         style="fill:#eaeaea;fill-opacity:1;stroke:none;stroke-width:0.67002px;stroke-linecap:butt;stroke-linejoin:miter;stroke-opacity:1"
         d="m 250.84874,83.615747 c 1.75089,0 1.75089,-1.021703 0.15917,-1.021703 -1.59171,0 -2.38758,0.510851 -2.38758,1.702839 0,1.191988 0.47752,1.362272 1.43255,1.532556 0.95503,0.170285 1.75088,2.043408 0.63669,1.873124 -1.11421,-0.170284 -2.54675,-0.340568 -2.22841,0.510852 0.31834,0.85142 2.54675,1.191988 3.50178,0.85142 0.95503,-0.340568 0.79586,-2.55426 -0.31834,-3.575964 -1.11421,-1.021704 -0.63669,-1.362272 0,-1.362272 0.63668,0 1.75089,-1.021704 0.15916,-1.191988 -1.59171,-0.170283 -0.95502,0.681136 -0.95502,0.681136 z"
         id="path3379" />
    </g>
    <path
       style="fill:#011c26;fill-opacity:1;stroke:none;stroke-width:1.00157;stroke-linecap:butt;stroke-linejoin:miter;stroke-miterlimit:4;stroke-dasharray:none;stroke-opacity:1"
       d="m 103.30785,158.6836 c 1.6352,3.54295 1.36267,6.81336 8.17604,3.27042 6.80907,-3.54071 17.71474,-2.72535 20.98515,-0.27254 3.27042,2.45281 5.45069,2.72534 5.99576,-2.72534 0.70975,-7.09751 2.18028,-23.43797 -2.99788,-25.07318 -5.17815,-1.6352 -25.61824,-2.99788 -30.52386,0.81761 -4.90562,3.81548 -2.99788,17.71474 -1.63521,23.98303 z"
       id="path1797"
       sodipodi:nodetypes="csssssc" />
    <path
       style="opacity:0.508642;fill:#c2edfd;fill-opacity:1;stroke:none;stroke-width:1px;stroke-linecap:butt;stroke-linejoin:miter;stroke-opacity:0.643275"
       d="m 137.6442,139.6605 c -0.54819,-2.87803 -0.41114,-3.83737 -2.46688,-4.79671 -2.05573,-0.95935 -9.86753,-1.37049 -13.01966,-1.37049 -3.15212,0 -6.1672,0 -6.1672,0 0,0 11.23802,0.54819 14.2531,1.09639 3.01507,0.54819 5.07081,1.23344 5.61901,2.05573 0.54819,0.8223 1.78163,3.01508 1.78163,3.01508 z"
       id="path10851" />
    <circle
       style="opacity:1;fill:#c2edfd;fill-opacity:1;stroke:none;stroke-width:1.00157;stroke-miterlimit:4;stroke-dasharray:none;stroke-opacity:0.643275;paint-order:stroke markers fill"
       id="path11511"
       cx="129.2157"
       cy="145.07393"
       r="4.7281914" />
    <circle
       style="opacity:1;fill:#000203;fill-opacity:1;stroke:none;stroke-width:0.58062;stroke-miterlimit:4;stroke-dasharray:none;stroke-opacity:0.643275;paint-order:stroke markers fill"
       id="path11511-2"
       cx="128.75967"
       cy="144.52576"
       r="2.7409806" />
    <circle
       style="fill:#c2edfd;fill-opacity:1;stroke:none;stroke-width:1.08866;stroke-miterlimit:4;stroke-dasharray:none;stroke-opacity:0.643275;paint-order:stroke markers fill"
       id="path11511-5"
       cx="115.57932"
       cy="145.14247"
       r="5.1393385" />
    <circle
       style="fill:#000203;fill-opacity:1;stroke:none;stroke-width:0.631109;stroke-miterlimit:4;stroke-dasharray:none;stroke-opacity:0.643275;paint-order:stroke markers fill"
       id="path11511-2-9"
       cx="115.02795"
       cy="144.54663"
       r="2.9793267" />
    <path
       style="opacity:0.197531;fill:#010f14;fill-opacity:1;stroke:none;stroke-width:1px;stroke-linecap:butt;stroke-linejoin:miter;stroke-opacity:1"
       d="m 57.286574,198.09446 c 5.13808,1.97619 9.485688,2.96428 11.560682,2.56904 2.074996,-0.39524 4.347608,-1.18571 4.644036,-3.06309 0.296427,-1.87737 4.05118,-19.07018 5.138081,-21.63922 1.086902,-2.56904 2.173805,-5.13809 2.173805,-5.13809 0,0 -5.335701,10.77021 -7.904741,15.61187 -2.569041,4.84165 -3.655943,10.27616 -6.027366,10.57259 -2.371421,0.29643 -9.584497,1.0869 -9.584497,1.0869 z"
       id="path13310" />
    <circle
       style="opacity:0.597531;fill:#e8f8fe;fill-opacity:1;stroke:none;stroke-width:1.00157;stroke-miterlimit:4;stroke-dasharray:none;stroke-opacity:0.643275;paint-order:stroke markers fill"
       id="path13960"
       cx="116.54077"
       cy="143.61761"
       r="0.48246443" />
    <circle
       style="opacity:0.597531;fill:#e8f8fe;fill-opacity:1;stroke:none;stroke-width:1.00157;stroke-miterlimit:4;stroke-dasharray:none;stroke-opacity:0.643275;paint-order:stroke markers fill"
       id="path13960-3"
       cx="129.80853"
       cy="143.37637"
       r="0.48246443" />
  </g>
</svg>
